<svg width="20" height="20" viewBox="0 0 20 20" fill="none" xmlns="http://www.w3.org/2000/svg">
  <path
    d="M2.92996 17.07C1.97486 16.1475 1.21303 15.0441 0.688943 13.824C0.164853 12.604 -0.111009 11.2918 -0.122547 9.96402C-0.134085 8.63622 0.118932 7.31943 0.62174 6.09046C1.12455 4.8615 1.86708 3.74498 2.80601 2.80605C3.74493 1.86713 4.86145 1.1246 6.09042 0.621786C7.31938 0.118977 8.63618 -0.13404 9.96397 -0.122501C11.2918 -0.110963 12.604 0.164899 13.824 0.688989C15.044 1.21308 16.1475 1.9749 17.07 2.93C18.8915 4.81602 19.8995 7.34205 19.8767 9.96402C19.8539 12.586 18.8022 15.0941 16.9481 16.9482C15.0941 18.8023 12.5859 19.854 9.96397 19.8767C7.342 19.8995 4.81598 18.8916 2.92996 17.07ZM4.33996 15.66C5.84108 17.1611 7.87705 18.0045 9.99996 18.0045C12.1229 18.0045 14.1588 17.1611 15.66 15.66C17.1611 14.1589 18.0044 12.1229 18.0044 10C18.0044 7.87709 17.1611 5.84113 15.66 4.34C14.1588 2.83888 12.1229 1.99555 9.99996 1.99555C7.87705 1.99555 5.84108 2.83888 4.33996 4.34C2.83883 5.84113 1.99551 7.87709 1.99551 10C1.99551 12.1229 2.83883 14.1589 4.33996 15.66ZM14.24 7.17L11.41 10L14.24 12.83L12.83 14.24L9.99996 11.41L7.16996 14.24L5.75996 12.83L8.58996 10L5.75996 7.17L7.16996 5.76L9.99996 8.59L12.83 5.76L14.24 7.17Z"
    fill="#282828" />
</svg>