<svg width="817" height="825" viewBox="0 0 817 825" fill="none" xmlns="http://www.w3.org/2000/svg">
  <rect x="437.659" y="196.884" width="388" height="388" transform="rotate(71.6666 437.659 196.884)" fill="#E0A959" />
  <path d="M618.531 24.2277L807.573 594.722L592.352 587.418L450.57 159.547L618.531 24.2277Z" fill="#E0A959" />
  <path d="M66.3308 313.608L432.777 192.181L442.61 165.746L44.2084 297.763L66.3308 313.608Z" fill="#B88438"
    stroke="black" stroke-width="12" />
  <path d="M450.163 153.72L579.87 49.985L572.318 28.2582L430.956 141.314L450.163 153.72Z" fill="#B88438" stroke="black"
    stroke-width="12" />
  <path d="M595.844 592.313L761.832 598.065L768.749 620.002L587.847 613.733L595.844 592.313Z" fill="#B88438"
    stroke="black" stroke-width="12" />
  <path d="M192.149 693.305L558.595 571.878L582.269 587.21L183.867 719.226L192.149 693.305Z" fill="#B88438"
    stroke="black" stroke-width="12" />
  <path
    d="M71.3259 318.524C71.1763 318.072 70.8705 317.689 70.4636 317.442L37.5131 297.483C35.9229 296.52 33.9936 298.058 34.5784 299.823L174.793 722.964C175.373 724.715 177.813 724.814 178.533 723.116L193.315 688.248C193.505 687.801 193.525 687.3 193.373 686.838L71.3259 318.524Z"
    fill="#B88438" />
  <path
    d="M71.3259 318.524C71.1763 318.072 70.8705 317.689 70.4636 317.442L37.5131 297.483C35.9229 296.52 33.9936 298.058 34.5784 299.823L174.793 722.964C175.373 724.715 177.813 724.814 178.533 723.116L193.315 688.248C193.505 687.801 193.525 687.3 193.373 686.838L71.3259 318.524Z"
    fill="#B88438" />
  <path
    d="M193.315 688.248L178.533 723.116C177.813 724.814 175.373 724.715 174.793 722.964L34.5784 299.823C33.9936 298.058 35.9229 296.52 37.5131 297.483L70.4636 317.442C70.8705 317.689 71.1763 318.072 71.3259 318.524L193.373 686.838C193.525 687.3 193.505 687.801 193.315 688.248Z"
    stroke="black" stroke-width="12" />
  <path
    d="M619.35 26.6978C618.996 25.6317 618.077 24.8523 616.968 24.6778L568.067 16.9884C565.848 16.6394 564.047 18.7633 564.753 20.8956L767.602 633.055C768.327 635.245 771.151 635.83 772.687 634.109L806.494 596.248C807.209 595.447 807.442 594.325 807.104 593.306L619.35 26.6978Z"
    fill="#B88438" />
  <path
    d="M619.35 26.6978C618.996 25.6317 618.077 24.8523 616.968 24.6778L568.067 16.9884C565.848 16.6394 564.047 18.7633 564.753 20.8956L767.602 633.055C768.327 635.245 771.151 635.83 772.687 634.109L806.494 596.248C807.209 595.447 807.442 594.325 807.104 593.306L619.35 26.6978Z"
    fill="#B88438" />
  <path
    d="M806.494 596.248L772.687 634.109C771.151 635.83 768.327 635.245 767.602 633.055L564.753 20.8956C564.047 18.7633 565.848 16.6394 568.067 16.9884L616.968 24.6778C618.077 24.8523 618.996 25.6317 619.35 26.6978L807.104 593.306C807.442 594.325 807.209 595.447 806.494 596.248Z"
    stroke="black" stroke-width="12" />
  <path
    d="M434.094 198.842C433.944 198.39 433.96 197.9 434.14 197.459L448.651 161.773C449.351 160.051 451.817 160.133 452.402 161.897L592.617 585.039C593.197 586.79 591.299 588.326 589.707 587.394L557.028 568.253C556.609 568.007 556.293 567.618 556.14 567.156L434.094 198.842Z"
    fill="#B88438" />
  <path
    d="M434.094 198.842C433.944 198.39 433.96 197.9 434.14 197.459L448.651 161.773C449.351 160.051 451.817 160.133 452.402 161.897L592.617 585.039C593.197 586.79 591.299 588.326 589.707 587.394L557.028 568.253C556.609 568.007 556.293 567.618 556.14 567.156L434.094 198.842Z"
    fill="#B88438" />
  <path
    d="M557.028 568.253L589.707 587.394C591.299 588.326 593.197 586.79 592.617 585.039L452.402 161.897C451.817 160.133 449.351 160.051 448.651 161.773L434.14 197.459C433.96 197.9 433.944 198.39 434.094 198.842L556.14 567.156C556.293 567.618 556.609 568.007 557.028 568.253Z"
    stroke="black" stroke-width="12" />
  <g clip-path="url(#clip0_3_174)">
    <path
      d="M433.016 327.627L464.602 386.457L475.801 456.746C477.861 462.962 472.546 469.128 466.095 468.008L324.281 443.393C317.468 442.21 314.717 433.915 319.473 428.896L418.502 324.393C423.007 319.639 430.956 321.41 433.016 327.627Z"
      fill="#FECB21" />
    <path
      d="M382.067 420.434C373.098 423.406 363.418 418.545 360.447 409.576C357.475 400.608 362.336 390.928 371.305 387.956C380.273 384.984 389.953 389.845 392.925 398.814C395.897 407.783 391.035 417.462 382.067 420.434ZM363.253 449.538C364.831 440.222 358.558 431.392 349.242 429.814C339.927 428.237 331.096 434.51 329.519 443.825M441.592 423.579C438.62 414.611 428.94 409.749 419.972 412.721C411.003 415.693 406.142 425.373 409.114 434.341C412.086 443.31 421.765 448.171 430.734 445.199C439.702 442.227 444.564 432.548 441.592 423.579ZM433.276 363.103C430.304 354.134 420.624 349.273 411.656 352.245C402.687 355.217 397.826 364.896 400.798 373.865C403.769 382.834 413.449 387.695 422.418 384.723C431.386 381.751 436.248 372.072 433.276 363.103Z"
      fill="#F43B22" />
    <path
      d="M413.819 330.379C412.437 326.209 413.299 321.434 416.485 317.973C421.159 312.893 429.066 312.566 434.145 317.24C443.745 326.075 452.271 336.262 459.487 347.519C466.708 358.784 472.556 371.015 476.865 383.872C481.158 396.68 483.877 409.968 484.936 423.341C486.016 436.979 485.36 450.563 482.985 463.715C481.759 470.508 475.258 475.021 468.466 473.794C461.673 472.568 457.16 466.067 458.387 459.275C460.38 448.236 460.929 436.81 460.018 425.314C459.132 414.133 456.879 403.021 453.32 392.279L453.166 391.816C449.509 380.908 444.556 370.543 438.444 361.008C432.383 351.555 425.242 343.017 417.218 335.632C415.656 334.199 414.486 332.391 413.819 330.379Z"
      fill="#C4790C" />
  </g>
  <g clip-path="url(#clip1_3_174)">
    <path
      d="M142.006 424.058L151.801 490.109L184.792 553.177C186.851 559.393 194.797 561.165 199.303 556.414L298.355 451.984C303.114 446.966 300.367 438.67 293.555 437.485L151.717 412.797C145.264 411.673 139.946 417.84 142.006 424.058Z"
      fill="#FECB21" />
    <path
      d="M238.294 468.076C247.263 465.104 252.124 455.424 249.152 446.455C246.18 437.487 236.501 432.626 227.532 435.597C218.563 438.569 213.702 448.249 216.674 457.218C219.646 466.186 229.325 471.047 238.294 468.076ZM270.764 480.186C263.936 473.655 263.694 462.826 270.224 455.998C276.755 449.17 287.584 448.928 294.412 455.458M192.426 506.144C189.454 497.176 194.315 487.496 203.284 484.524C212.252 481.552 221.932 486.413 224.904 495.382C227.876 504.351 223.015 514.03 214.046 517.002C205.077 519.974 195.398 515.113 192.426 506.144ZM162.982 452.669C160.01 443.7 164.872 434.021 173.84 431.049C182.809 428.077 192.488 432.938 195.46 441.907C198.432 450.875 193.571 460.555 184.602 463.527C175.634 466.499 165.954 461.637 162.982 452.669Z"
      fill="#F43B22" />
    <path
      d="M159.047 414.801C157.666 410.631 154.123 407.316 149.5 406.442C142.718 405.159 136.18 409.618 134.898 416.4C132.473 429.22 131.718 442.483 132.651 455.821C133.586 469.169 136.2 482.471 140.421 495.358C144.626 508.195 150.38 520.477 157.516 531.837C164.794 543.421 173.432 553.925 183.191 563.057C188.231 567.773 196.14 567.511 200.856 562.471C205.572 557.431 205.31 549.521 200.27 544.806C192.08 537.142 184.816 528.305 178.682 518.539C172.715 509.042 167.886 498.783 164.327 488.041L164.174 487.578C160.593 476.645 158.377 465.373 157.586 454.075C156.802 442.873 157.432 431.76 159.458 421.045C159.855 418.963 159.714 416.813 159.047 414.801Z"
      fill="#C4790C" />
  </g>
  <g clip-path="url(#clip2_3_174)">
    <path
      d="M381.926 593.102L433.171 550.293L469.773 489.25C474.002 484.25 471.37 476.547 464.966 475.18L324.201 445.14C317.439 443.697 311.793 450.367 314.335 456.798L367.253 590.691C369.661 596.782 377.696 598.102 381.926 593.102Z"
      fill="#FECB21" />
    <path
      d="M369.258 487.99C362.045 481.888 351.25 482.79 345.149 490.003C339.047 497.216 339.948 508.011 347.162 514.113C354.375 520.214 365.169 519.313 371.271 512.1C377.373 504.886 376.472 494.092 369.258 487.99ZM362.654 453.97C360.644 463.202 351.531 469.057 342.299 467.047C333.067 465.037 327.213 455.923 329.223 446.692M425.663 507.268C419.561 514.482 408.767 515.383 401.553 509.281C394.34 503.179 393.439 492.385 399.54 485.171C405.642 477.958 416.436 477.057 423.65 483.158C430.864 489.26 431.765 500.054 425.663 507.268ZM395.396 560.282C389.294 567.495 378.5 568.396 371.286 562.295C364.072 556.193 363.171 545.399 369.273 538.185C375.375 530.971 386.169 530.07 393.383 536.172C400.596 542.274 401.498 553.068 395.396 560.282Z"
      fill="#F43B22" />
    <path
      d="M365.14 583.39C362.302 586.744 361.322 591.496 362.988 595.896C365.431 602.352 372.645 605.604 379.1 603.161C391.302 598.543 403.012 592.269 413.905 584.516C424.807 576.756 434.793 567.587 443.586 557.264C452.345 546.981 459.823 535.665 465.792 523.651C471.88 511.4 476.336 498.551 479.037 485.462C480.432 478.702 476.083 472.091 469.323 470.696C462.563 469.301 455.952 473.65 454.557 480.41C452.291 491.395 448.539 502.202 443.407 512.529C438.416 522.574 432.182 532.045 424.874 540.684L424.558 541.056C417.098 549.814 408.637 557.585 399.41 564.152C390.262 570.664 380.452 575.923 370.252 579.784C368.269 580.53 366.509 581.772 365.14 583.39Z"
      fill="#C4790C" />
  </g>
  <g clip-path="url(#clip3_3_174)">
    <path
      d="M147.466 388.12L182.86 331.5L238.322 286.89C242.695 282.017 250.686 283.57 252.916 289.727L301.934 425.058C304.289 431.559 298.453 438.064 291.735 436.426L151.862 402.325C145.498 400.774 143.091 392.995 147.466 388.12Z"
      fill="#FECB21" />
    <path
      d="M253.322 386.287C260.353 392.598 260.937 403.414 254.627 410.445C248.316 417.477 237.5 418.061 230.468 411.75C223.437 405.439 222.853 394.623 229.164 387.592C235.475 380.56 246.29 379.976 253.322 386.287ZM287.925 388.174C279.055 391.428 274.503 401.257 277.757 410.127C281.011 418.997 290.84 423.55 299.71 420.296M226.508 333.051C220.197 340.082 220.781 350.898 227.812 357.209C234.844 363.52 245.66 362.936 251.971 355.904C258.282 348.873 257.697 338.057 250.666 331.746C243.635 325.435 232.819 326.019 226.508 333.051ZM178.134 370.287C171.823 377.318 172.407 388.134 179.439 394.445C186.47 400.756 197.286 400.172 203.597 393.14C209.908 386.109 209.324 375.293 202.292 368.982C195.261 362.671 184.445 363.255 178.134 370.287Z"
      fill="#F43B22" />
    <path
      d="M159.382 403.42C156.448 406.689 151.875 408.311 147.289 407.263C140.559 405.726 136.351 399.025 137.888 392.296C140.793 379.577 145.405 367.118 151.595 355.267C157.79 343.406 165.506 332.26 174.529 322.137C183.518 312.053 193.704 303.097 204.788 295.54C216.091 287.834 228.209 281.661 240.806 277.195C247.312 274.888 254.456 278.291 256.762 284.797C259.069 291.302 255.665 298.447 249.16 300.753C238.588 304.502 228.397 309.696 218.868 316.193C209.601 322.511 201.072 329.983 193.514 338.404L193.188 338.768C185.534 347.356 178.994 356.801 173.75 366.84C168.552 376.793 164.684 387.23 162.256 397.862C161.787 399.929 160.798 401.842 159.382 403.42Z"
      fill="#C4790C" />
  </g>
  <g clip-path="url(#clip4_3_174)">
    <path
      d="M405.601 303.923L343.693 278.901L272.604 275.388C266.201 274.015 260.648 279.967 262.461 286.259L302.307 424.568C304.221 431.212 312.765 433.048 317.239 427.775L410.389 318C414.627 313.006 412.005 305.297 405.601 303.923Z"
      fill="#FECB21" />
    <path
      d="M318.865 364.633C316.883 373.871 322.765 382.967 332.003 384.949C341.24 386.931 350.336 381.049 352.318 371.811C354.3 362.573 348.418 353.477 339.18 351.495C329.942 349.513 320.847 355.395 318.865 364.633ZM291.972 386.491C301.062 383.913 310.521 389.192 313.099 398.281C315.677 407.371 310.398 416.829 301.309 419.408M309.285 305.8C318.523 307.782 324.405 316.878 322.423 326.116C320.441 335.354 311.345 341.236 302.107 339.254C292.869 337.272 286.987 328.176 288.969 318.938C290.951 309.7 300.047 303.818 309.285 305.8ZM370.306 307.511C379.544 309.493 385.426 318.588 383.444 327.826C381.462 337.064 372.367 342.946 363.129 340.964C353.891 338.982 348.009 329.887 349.991 320.649C351.973 311.411 361.068 305.529 370.306 307.511Z"
      fill="#F43B22" />
    <path
      d="M404.947 323.305C409.242 324.226 413.895 322.852 416.991 319.309C421.533 314.112 421.002 306.216 415.804 301.674C405.98 293.089 394.929 285.717 382.957 279.764C370.975 273.807 358.182 269.32 344.933 266.43C331.735 263.551 318.231 262.289 304.822 262.686C291.147 263.091 277.715 265.216 264.897 269.003C258.277 270.958 254.496 277.909 256.452 284.529C258.408 291.149 265.359 294.93 271.979 292.974C282.736 289.796 294.035 288.012 305.562 287.671C316.773 287.339 328.065 288.374 339.129 290.748L339.606 290.851C350.846 293.303 361.687 297.103 371.828 302.146C381.883 307.145 391.145 313.319 399.356 320.495C400.95 321.893 402.874 322.86 404.947 323.305Z"
      fill="#C4790C" />
  </g>
  <g clip-path="url(#clip5_3_174)">
    <path
      d="M344.917 606.031L278.163 604.429L211.519 579.439C205.097 578.159 202.361 570.491 206.522 565.436L297.988 454.299C302.382 448.96 310.953 450.666 312.967 457.282L354.9 595.01C356.807 601.276 351.341 607.312 344.917 606.031Z"
      fill="#FECB21" />
    <path
      d="M289.399 515.883C291.246 506.617 300.255 500.603 309.521 502.45C318.787 504.297 324.801 513.306 322.954 522.572C321.107 531.838 312.098 537.852 302.832 536.005C293.566 534.158 287.552 525.149 289.399 515.883ZM273.39 485.147C280.71 491.121 291.487 490.03 297.461 482.71C303.435 475.39 302.344 464.614 295.024 458.64M257.256 566.082C266.522 567.929 275.531 561.915 277.378 552.649C279.225 543.383 273.211 534.375 263.945 532.528C254.679 530.68 245.671 536.694 243.824 545.96C241.977 555.226 247.991 564.235 257.256 566.082ZM313.945 588.73C323.211 590.577 332.22 584.563 334.067 575.297C335.914 566.032 329.9 557.023 320.634 555.176C311.368 553.329 302.359 559.343 300.512 568.609C298.665 577.874 304.679 586.883 313.945 588.73Z"
      fill="#F43B22" />
    <path
      d="M352.009 587.981C356.318 588.84 360.043 591.949 361.478 596.429C363.585 603.002 359.964 610.038 353.39 612.145C340.966 616.126 327.897 618.506 314.545 619.219C301.183 619.932 287.66 618.973 274.352 616.367C261.096 613.772 248.199 609.571 236.049 603.884C223.658 598.086 212.172 590.804 201.91 582.241C196.61 577.819 195.899 569.938 200.321 564.638C204.743 559.339 212.625 558.627 217.924 563.049C226.536 570.235 236.199 576.357 246.644 581.245C256.803 585.999 267.578 589.531 278.675 591.743L279.154 591.838C290.444 594.048 301.904 594.862 313.213 594.259C324.426 593.66 335.378 591.669 345.763 588.341C347.78 587.691 349.93 587.567 352.009 587.981Z"
      fill="#C4790C" />
  </g>
  <defs>
    <clipPath id="clip0_3_174">
      <rect x="450.384" y="303.955" width="168.76" height="168.76" transform="rotate(71.6666 450.384 303.955)"
        fill="white" />
    </clipPath>
    <clipPath id="clip1_3_174">
      <rect width="168.76" height="168.76" transform="matrix(0.314546 0.949242 0.949242 -0.314546 113.939 415.441)"
        fill="white" />
    </clipPath>
    <clipPath id="clip2_3_174">
      <rect width="168.76" height="168.76" transform="matrix(0.645822 -0.763488 -0.763488 -0.645822 389.214 621.543)"
        fill="white" />
    </clipPath>
    <clipPath id="clip3_3_174">
      <rect x="118.295" y="384.792" width="168.76" height="168.76" transform="rotate(-48.0913 118.295 384.792)"
        fill="white" />
    </clipPath>
    <clipPath id="clip4_3_174">
      <rect width="168.76" height="168.76" transform="matrix(-0.97775 -0.209774 -0.209774 0.97775 427.25 284.091)"
        fill="white" />
    </clipPath>
    <clipPath id="clip5_3_174">
      <rect x="356.918" y="632.827" width="168.76" height="168.76" transform="rotate(-168.726 356.918 632.827)"
        fill="white" />
    </clipPath>
  </defs>
</svg>