<svg width="532" height="492" viewBox="0 0 532 492" fill="none" xmlns="http://www.w3.org/2000/svg">
  <path
    d="M231.081 65.8009L296.494 117.918C311.341 144.031 313.986 167.555 304.429 188.489L200.054 319.493C191.749 329.916 179.65 336.618 166.417 338.124C153.185 339.631 139.903 335.818 129.494 327.524L64.0805 275.407C53.6713 267.114 46.9874 255.02 45.4992 241.785C44.011 228.55 47.8405 215.26 56.1451 204.836L160.52 73.8321C178.79 59.8402 202.31 57.1631 231.081 65.8009Z"
    fill="#047A0F" />
  <path fill-rule="evenodd" clip-rule="evenodd"
    d="M301.316 115.367L232.881 60.8423C202.791 51.7931 178.199 54.5753 159.105 69.1887L50.0567 206.059C41.3803 216.949 37.3852 230.839 38.9505 244.675C40.5158 258.511 47.5131 271.158 58.4031 279.834L126.838 334.359C137.728 343.035 151.619 347.03 165.455 345.465C179.29 343.9 191.937 336.902 200.614 326.012L309.662 189.142C319.641 167.266 316.859 142.674 301.316 115.367ZM63.7437 216.964L171.342 81.9139C184.77 72.4745 202.107 70.5131 224.7 76.6994L287.674 126.873C298.751 147.512 300.712 164.85 294.511 180.047L186.913 315.096C181.129 322.356 172.697 327.021 163.474 328.065C154.25 329.108 144.989 326.445 137.729 320.661L69.2943 266.136C62.0343 260.352 57.3694 251.921 56.3259 242.697C55.2824 233.473 57.9594 224.224 63.7437 216.964Z"
    fill="black" />
  <path
    d="M155.458 203.928L173.088 206.233L179.198 222.997L186.922 206.903L204.641 206.189L191.822 193.967L196.581 176.747L180.934 185.138L166.158 175.374L169.344 192.898L155.458 203.928ZM131.449 210.6L158.75 188.938L152.378 154.662L181.478 173.984L212.016 157.374L202.647 190.851L227.983 214.898L193.15 216.345L178.134 247.796L166.011 215.116L131.449 210.6Z"
    fill="black" />
  <path fill-rule="evenodd" clip-rule="evenodd"
    d="M124.916 153.825C113.347 168.345 108.021 186.866 110.108 205.314C112.195 223.761 121.524 240.624 136.045 252.193C150.565 263.761 169.086 269.088 187.533 267.001C205.981 264.914 222.843 255.584 234.412 241.064C245.981 226.544 251.307 208.023 249.22 189.576C247.133 171.128 237.804 154.265 223.283 142.697C208.763 131.128 190.242 125.801 171.795 127.888C153.347 129.975 136.485 139.305 124.916 153.825ZM220.725 230.159C216.429 235.551 211.113 240.045 205.08 243.382C199.047 246.72 192.416 248.837 185.566 249.612C178.715 250.387 171.779 249.805 165.153 247.899C158.527 245.994 152.342 242.802 146.949 238.506C141.557 234.21 137.064 228.893 133.726 222.861C130.389 216.828 128.272 210.197 127.497 203.346C126.722 196.496 127.304 189.56 129.209 182.934C131.115 176.308 134.307 170.122 138.603 164.73C147.279 153.84 159.927 146.843 173.762 145.277C187.598 143.712 201.489 147.707 212.379 156.384C223.269 165.06 230.266 177.707 231.831 191.543C233.396 205.378 229.401 219.269 220.725 230.159Z"
    fill="black" />
  <path
    d="M335.174 147.447L415.841 169.533C439.785 187.672 451.496 208.244 450.972 231.25L406.74 392.805C403.221 405.659 394.746 416.59 383.181 423.194C371.616 429.798 357.907 431.534 345.07 428.019L264.403 405.933C251.566 402.419 240.653 393.942 234.065 382.368C227.476 370.793 225.752 357.07 229.272 344.216L273.503 182.661C284.772 162.597 305.329 150.859 335.174 147.447Z"
    fill="#047A0F" />
  <path fill-rule="evenodd" clip-rule="evenodd"
    d="M419.266 165.286L334.872 142.18C303.652 145.735 282.152 157.992 270.372 178.953L224.159 347.741C220.482 361.17 222.291 375.511 229.187 387.607C236.083 399.703 247.502 408.564 260.932 412.241L345.326 435.347C358.756 439.024 373.096 437.215 385.192 430.319C397.288 423.423 406.149 412.004 409.826 398.574L456.038 229.786C456.578 205.748 444.32 184.248 419.266 165.286ZM241.038 352.362L286.636 185.819C295.251 171.848 310.408 163.206 333.609 159.978L411.269 181.241C429.59 195.837 438.231 210.994 438.528 227.405L392.93 393.949C390.479 402.902 384.572 410.514 376.508 415.112C368.444 419.709 358.883 420.915 349.93 418.464L265.536 395.357C256.583 392.906 248.971 386.999 244.373 378.935C239.776 370.871 238.587 361.315 241.038 352.362Z"
    fill="black" />
  <path
    d="M320.173 304.204L337.282 299.367L349.51 312.361L350.259 294.526L366.258 286.88L349.658 280.706L347.238 263.005L336.17 276.888L318.74 273.744L328.581 288.591L320.173 304.204ZM300.742 319.806L317.284 289.131L297.908 260.148L332.27 266.424L353.779 239.114L358.376 273.572L391.143 285.675L359.706 300.746L358.315 335.569L334.283 310.322L300.742 319.806Z"
    fill="black" />
  <path fill-rule="evenodd" clip-rule="evenodd"
    d="M272.343 270.213C267.44 288.119 269.851 307.239 279.046 323.367C288.241 339.495 303.467 351.31 321.373 356.213C339.279 361.115 358.399 358.704 374.527 349.509C390.656 340.314 402.47 325.089 407.373 307.182C412.275 289.276 409.864 270.156 400.669 254.028C391.474 237.9 376.249 226.085 358.343 221.182C340.437 216.28 321.316 218.691 305.188 227.886C289.06 237.081 277.245 252.306 272.343 270.213ZM390.494 302.561C388.674 309.211 385.561 315.437 381.334 320.884C377.108 326.33 371.849 330.891 365.86 334.306C359.871 337.721 353.267 339.922 346.427 340.785C339.587 341.648 332.644 341.155 325.994 339.334C319.344 337.513 313.118 334.401 307.672 330.174C302.225 325.947 297.664 320.689 294.249 314.7C290.835 308.71 288.633 302.107 287.77 295.267C286.908 288.427 287.401 281.483 289.221 274.834C292.898 261.404 301.759 249.985 313.855 243.089C325.952 236.193 340.292 234.384 353.721 238.061C367.151 241.738 378.57 250.599 385.466 262.695C392.362 274.791 394.171 289.132 390.494 302.561Z"
    fill="black" />
</svg>