<svg width="135" height="121" viewBox="0 0 135 121" fill="none" xmlns="http://www.w3.org/2000/svg">
  <ellipse cx="102.641" cy="81.2081" rx="26.162" ry="23.3078" transform="rotate(-3.54851 102.641 81.2081)"
    fill="#8B8888" fill-opacity="0.4" />
  <path
    d="M77 85C76.5 85.5 78 90 78.8099 90.8258L19.2034 99.238C17.8457 99.4297 16.5839 98.5009 16.3634 97.1476C16.1388 95.769 17.078 94.4706 18.4577 94.2526L77 85Z"
    fill="#8B8888" fill-opacity="0.4" />
  <path
    d="M59.4409 8.01073C57.1848 6.95867 54.7435 6.36133 52.2565 6.25281C49.7695 6.14429 47.2854 6.52672 44.9462 7.37826C42.607 8.2298 40.4585 9.53377 38.6233 11.2157C36.788 12.8977 35.3021 14.9246 34.2503 17.1809C32.3085 21.3446 31.9451 26.0719 33.2276 30.4835C34.5101 34.8951 37.3512 38.6908 41.2226 41.1646L15.9699 95.3192C15.6896 95.9201 15.6596 96.6077 15.8864 97.2308C16.1132 97.8538 16.5782 98.3613 17.1791 98.6415C17.78 98.9217 18.4676 98.9517 19.0907 98.725C19.7137 98.4982 20.2212 98.0332 20.5014 97.4323L45.7545 43.2768C50.1379 44.6522 54.8716 44.3889 59.0753 42.5358C63.2791 40.6827 66.6668 37.3659 68.6084 33.2023C69.6607 30.9463 70.2583 28.5051 70.3671 26.0181C70.4759 23.5311 70.0937 21.047 69.2424 18.7077C68.3911 16.3684 67.0874 14.2198 65.4056 12.3843C63.7239 10.5489 61.697 9.06278 59.4409 8.01073ZM51.4487 13.7167C52.1565 14.0467 52.7923 14.5129 53.3199 15.0887C53.8476 15.6645 54.2566 16.3386 54.5237 17.0725C54.7908 17.8064 54.9108 18.5857 54.8767 19.3659C54.8426 20.1461 54.6552 20.912 54.3252 21.6198C53.9951 22.3276 53.5289 22.9634 52.9531 23.4911C52.3773 24.0187 51.7032 24.4277 50.9693 24.6948C50.2355 24.9619 49.4562 25.0819 48.6759 25.0478C47.8957 25.0137 47.1298 24.8263 46.422 24.4963C44.9926 23.8297 43.8864 22.6226 43.347 21.1405C42.8076 19.6583 42.879 18.0226 43.5455 16.5932C44.2121 15.1637 45.4192 14.0576 46.9014 13.5181C48.3835 12.9787 50.0192 13.0501 51.4487 13.7167Z"
    fill="#EB4C37" />
  <path
    d="M41.2213 41.1672C43.0345 42.1442 44.0308 42.6224 45.7528 43.2803L20.5013 97.4322C19.9178 98.6836 18.4304 99.225 17.179 98.6414C15.9277 98.0579 15.3863 96.5705 15.9698 95.3191L41.2213 41.1672Z"
    fill="black" />
  <circle cx="49" cy="19" r="6" fill="white" />
</svg>