<svg width="80" height="80" viewBox="0 0 80 80" fill="none" xmlns="http://www.w3.org/2000/svg">
  <g clip-path="url(#clip0_39_2)">
    <path
      d="M52.1766 11.0749L62.1362 16.8251L60.7361 19.2501L50.7765 13.4999L52.1766 11.0749ZM53.8788 25.329L63.8368 31.0807L62.4367 33.5057L52.4788 27.754L53.8788 25.329ZM22.4049 62.6352L32.3632 68.3879L30.9621 70.8131L21.0039 65.0605L22.4049 62.6352ZM35.6891 56.9731L45.6473 62.7257L44.2463 65.151L34.2878 59.3974L35.6891 56.9731Z"
      fill="#ACB8BF" />
    <path
      d="M18.5932 70.9967L58.0422 55.5606L62.497 47.8447L56.1405 5.96275C55.8161 3.97913 51.09 5.6596 50.6227 8.16593L44.5316 42.6163L17.7423 65.1166C15.8054 66.7744 16.7131 71.7075 18.5932 70.9967Z"
      fill="#42ADE2" />
    <path
      d="M70.669 62.1158C75.3919 63.128 77.7254 59.0863 74.4874 55.5022C70.3593 50.9143 62.1775 44.7209 52.2312 38.8967C36.5545 29.8458 22.1649 25.2122 20.1591 28.5449C18.2499 31.8517 29.4834 42.0932 45.1602 51.1442C55.0806 56.8717 64.6317 60.8347 70.669 62.1158Z"
      fill="#DAE3EA" />
    <path
      d="M10.2763 38.0258L24.1578 32.6498L25.7135 29.9554L23.4284 15.2456C23.3439 14.5435 21.6311 15.106 21.4518 15.9823L19.3018 28.0499L9.92592 35.9456C9.25671 36.539 9.62599 38.3036 10.2763 38.0258Z"
      fill="#42ADE2" />
    <path
      d="M23.2298 32.2773C17.7184 29.0953 13.6629 25.9374 14.1838 25.1767C14.608 24.4418 19.4673 26.3491 24.9527 29.4345C30.4641 32.6165 34.5196 35.7745 34.0246 36.6318C33.5745 37.27 28.7153 35.3627 23.2298 32.2773Z"
      fill="#ACB8BF" />
    <path
      d="M68.7354 61.0811C70.6035 61.0982 72.1938 60.465 73.0682 59.0919C73.846 57.7447 73.6699 55.9284 72.6504 54.4416L69.7419 51.7009C70.7615 53.1877 70.5392 55.8355 69.7614 57.1827C68.9129 58.6524 66.8017 60.0463 65.0043 59.9067L68.7354 61.0811Z"
      fill="#3E4347" />
    <path d="M67.1521 55.1529L74.0816 59.1495L73.6322 59.9295L66.7014 55.9321L67.1521 55.1529Z" fill="#DAE3EA" />
  </g>
  <defs>
    <clipPath id="clip0_39_2">
      <rect width="64" height="64" fill="white" transform="translate(62.6274 0.808167) rotate(75)" />
    </clipPath>
  </defs>
</svg>